<svg xmlns="http://www.w3.org/2000/svg" width="100" height="100" fill="none"><path fill="#005A9C" d="M35 20c-3-3-6-5-10-5a12 12 0 0 0-7 22c4-8 9-13 17-17ZM75 15c-4 0-8 2-10 5 7 4 13 10 17 17 3-2 5-6 5-10 0-7-5-12-12-12Z"/><path fill="#005A9C" d="M82 52a32 32 0 1 0-52 24l-2 4a4 4 0 1 0 6 4l2-4a31 31 0 0 0 28 0l2 4a4 4 0 0 0 6-4l-2-4c7-6 12-14 12-24ZM50 28a24 24 0 0 1 24 24 24 24 0 0 1-24 24 24 24 0 0 1-24-24 24 24 0 0 1 24-24Z"/><path fill="#005A9C" d="M50 54h14a2 2 0 0 0 0-4H52V34a2 2 0 1 0-4 0v18l2 2Z"/></svg>