<svg width="100" height="100" viewBox="0 0 100 100" fill="none" xmlns="http://www.w3.org/2000/svg">
<path d="M35.5496 23.6857L34.0465 28.1429H23.25C18.148 28.1429 14 32.2429 14 37.2857V73.8571C14 78.9 18.148 83 23.25 83H78.75C83.852 83 88 78.9 88 73.8571V37.2857C88 32.2429 83.852 28.1429 78.75 28.1429H67.9535L66.4504 23.6857C65.5109 20.8857 62.866 19 59.8742 19H42.1258C39.134 19 36.4891 20.8857 35.5496 23.6857ZM51 41.8571C54.6799 41.8571 58.209 43.302 60.8111 45.874C63.4132 48.4459 64.875 51.9342 64.875 55.5714C64.875 59.2087 63.4132 62.697 60.8111 65.2689C58.209 67.8408 54.6799 69.2857 51 69.2857C47.3201 69.2857 43.791 67.8408 41.1889 65.2689C38.5868 62.697 37.125 59.2087 37.125 55.5714C37.125 51.9342 38.5868 48.4459 41.1889 45.874C43.791 43.302 47.3201 41.8571 51 41.8571Z" fill="#005A9C"/>
</svg>
