<svg width="100" height="100" viewBox="0 0 100 100" fill="none" xmlns="http://www.w3.org/2000/svg">
<path d="M77.3571 14C75.0357 14 58.7857 18.625 58.7857 39.4375V55.625C58.7857 60.727 62.9498 64.875 68.0714 64.875H72.7143V83.375C72.7143 85.9332 74.7891 88 77.3571 88C79.9252 88 82 85.9332 82 83.375V64.875V48.6875V18.625C82 16.0668 79.9252 14 77.3571 14ZM26.2857 16.3125C26.2857 15.1273 25.4007 14.1445 24.2109 14.0145C23.0212 13.8844 21.9621 14.6648 21.7009 15.8066L17.3047 35.5063C17.1016 36.4168 17 37.3418 17 38.2668C17 44.9008 22.0926 50.3496 28.6071 50.9422V83.375C28.6071 85.9332 30.6819 88 33.25 88C35.8181 88 37.8929 85.9332 37.8929 83.375V50.9422C44.4074 50.3496 49.5 44.9008 49.5 38.2668C49.5 37.3418 49.3984 36.4168 49.1953 35.5063L44.7991 15.8066C44.5379 14.6504 43.4498 13.8844 42.2746 14.0145C41.0993 14.1445 40.2143 15.1273 40.2143 16.3125V35.7086C40.2143 36.4891 39.5759 37.125 38.7924 37.125C38.0525 37.125 37.4431 36.5613 37.3705 35.8242L35.5569 16.1102C35.4554 14.9105 34.4542 14 33.25 14C32.0458 14 31.0446 14.9105 30.9431 16.1102L29.144 35.8242C29.0714 36.5613 28.4621 37.125 27.7221 37.125C26.9386 37.125 26.3002 36.4891 26.3002 35.7086L26.2857 16.3125ZM33.2935 38.2812H33.25H33.2065L33.25 38.1801L33.2935 38.2812Z" fill="#005A9C"/>
</svg>
