<svg width="100" height="100" viewBox="0 0 100 100" fill="none" xmlns="http://www.w3.org/2000/svg">
<path d="M81.6821 22.8253L69.7308 10.7871C68.6898 9.73869 67.0038 9.73742 65.9629 10.7846C64.9221 11.8331 64.9221 13.5318 65.9629 14.5802L73.9319 22.608C74.3869 23.0676 74.3869 23.8125 73.9296 24.2731L73.196 25.0145C72.7387 25.4739 71.9981 25.4739 71.5407 25.0145L63.1404 16.5512C62.3377 15.7438 61.0421 15.7438 60.2394 16.55C59.4416 17.356 59.4416 18.6637 60.2419 19.471L68.6423 27.9344C69.0996 28.3939 69.0996 29.1399 68.6423 29.6006L67.9062 30.3407C67.4488 30.8014 66.7107 30.8014 66.2534 30.342L57.8505 21.8775C57.0504 21.0714 55.7522 21.0714 54.9521 21.8775C54.1517 22.6848 54.1517 23.99 54.9521 24.7974L63.3548 33.2619C63.8121 33.7214 63.8121 34.4674 63.3548 34.9281L62.6188 35.6684C62.1615 36.1278 61.4209 36.1278 60.9659 35.6695L52.5632 27.205C51.763 26.3989 50.4625 26.3989 49.6647 27.205C48.862 28.0112 48.862 29.3187 49.6647 30.1249L58.0674 38.5894C58.5222 39.0489 58.5222 39.7949 58.0674 40.2545L57.3315 40.9959C56.8742 41.4565 56.1334 41.4565 55.676 40.9959L47.2733 32.5314C46.4732 31.7251 45.175 31.7251 44.3749 32.5314C43.5746 33.3387 43.5746 34.6451 44.3771 35.4512L52.7774 43.9157C53.2347 44.3763 53.2347 45.1213 52.7774 45.5807L52.0416 46.3234C51.5867 46.7828 50.8435 46.7828 50.3887 46.3246L41.986 37.86C41.1857 37.0515 39.8877 37.0539 39.0874 37.86C38.2872 38.6649 38.2872 39.9737 39.0874 40.7799L47.4901 49.2444C47.945 49.7038 47.945 50.4488 47.4877 50.9095L46.7541 51.6508C46.2968 52.1115 45.5562 52.1115 45.1014 51.6508L37.1321 43.6254C36.0914 42.5769 34.4051 42.5769 33.3642 43.6241C32.3233 44.6714 32.3233 46.3724 33.3642 47.4208L44.2795 58.966C35.4958 67.8803 24.4423 72.5816 19.8218 77.2374C14.1177 82.9824 15.9729 87.5937 17.9069 89.5407C19.8385 91.4864 22.9728 91.4864 24.9044 89.5407L54.3614 59.8682L57.5696 56.6365L82.0893 31.9365C83.3325 30.6853 84.0209 28.9806 83.9995 27.2099C83.978 25.4393 82.9562 24.0477 81.6821 22.8253Z" fill="#005A9C"/>
</svg>
