<svg width="100" height="100" viewBox="0 0 100 100" fill="none" xmlns="http://www.w3.org/2000/svg">
<path d="M88.0348 12.9679C89.2688 13.8819 90 15.3442 90 16.8827V27.8503V68.0648C90 74.7977 83.4492 80.251 75.375 80.251C67.3008 80.251 60.75 74.7977 60.75 68.0648C60.75 61.3319 67.3008 55.8786 75.375 55.8786C77.0812 55.8786 78.7266 56.1223 80.25 56.5793V34.4004L41.25 46.0992V77.8138C41.25 84.5467 34.6992 90 26.625 90C18.5508 90 12 84.5467 12 77.8138C12 71.0809 18.5508 65.6276 26.625 65.6276C28.3312 65.6276 29.9766 65.8713 31.5 66.3283V42.4738V31.5062C31.5 29.3583 32.9168 27.4543 34.9734 26.8297L83.7234 12.2063C85.2012 11.7645 86.8008 12.0387 88.0348 12.9679Z" fill="#005A9C"/>
</svg>
