<svg width="100" height="100" viewBox="0 0 100 100" fill="none" xmlns="http://www.w3.org/2000/svg">
<path d="M45.226 82.8806L17.3445 56.8507C16.6965 56.2489 16.0793 55.6009 15.5084 54.9374H28.9322C32.4193 54.9374 35.567 52.839 36.9094 49.6142L38.5295 45.7259L46.1363 62.6214C46.7227 63.9329 48.0033 64.7816 49.4383 64.797C50.8732 64.8124 52.1848 64.0255 52.8328 62.7448L59.375 49.645L59.6373 50.1696C61.1031 53.1013 64.0965 54.9528 67.3676 54.9528H83.4916C82.9207 55.6163 82.3035 56.2644 81.6555 56.8661L53.774 82.8806C52.6168 83.9607 51.0893 84.5624 49.5 84.5624C47.9107 84.5624 46.3832 83.9607 45.226 82.8806ZM87.7193 47.5312H67.3521C66.8893 47.5312 66.4572 47.2689 66.2412 46.8523L62.6615 39.7083C62.0289 38.4585 60.7482 37.6562 59.3441 37.6562C57.94 37.6562 56.6594 38.4431 56.0268 39.7083L49.6389 52.4841L41.7697 34.9097C41.168 33.5673 39.8102 32.7032 38.3443 32.7341C36.8785 32.765 35.5516 33.6444 34.9807 35.0177L30.074 46.7905C29.8889 47.2534 29.426 47.5466 28.9322 47.5466L12.4688 47.5312C12.0676 47.5312 11.6973 47.5929 11.3424 47.7009C10.4629 45.2476 10 42.6245 10 39.9552V39.0603C10 28.2749 17.792 19.0788 28.423 17.3044C35.459 16.1317 42.6184 18.4308 47.6484 23.4608L49.5 25.3124L51.3516 23.4608C56.3816 18.4308 63.541 16.1317 70.577 17.3044C81.208 19.0788 89 28.2749 89 39.0603V39.9552C89 42.5628 88.568 45.1241 87.7193 47.5312Z" fill="#005A9C"/>
</svg>
