<svg width="101" height="101" viewBox="0 0 101 101" fill="none" xmlns="http://www.w3.org/2000/svg">
<g clip-path="url(#clip0_16_406)">
<path d="M50.9854 9.87546C50.9854 7.38893 52.0595 5.00425 53.9714 3.24601C55.8834 1.48777 58.4765 0.5 61.1803 0.5C63.8842 0.5 66.4773 1.48777 68.3892 3.24601C70.3012 5.00425 71.3753 7.38893 71.3753 9.87546C71.3753 12.362 70.3012 14.7467 68.3892 16.5049C66.4773 18.2631 63.8842 19.2509 61.1803 19.2509C58.4765 19.2509 55.8834 18.2631 53.9714 16.5049C52.0595 14.7467 50.9854 12.362 50.9854 9.87546ZM43.8702 39.4277C43.6578 39.5058 43.4667 39.5839 43.2543 39.6621L41.5551 40.3457C38.0719 41.7715 35.3957 44.4865 34.1851 47.807L33.6328 49.3305C32.4434 52.6119 28.5991 54.3698 25.0309 53.276C21.4627 52.1822 19.5511 48.6469 20.7405 45.3655L21.2927 43.842C23.714 37.1815 29.0664 31.7515 36.0329 28.8998L37.732 28.2162C42.1498 26.4192 46.9287 25.4817 51.7713 25.4817C61.2441 25.4817 69.7823 30.7163 73.4142 38.7441L76.6851 45.9514L81.2303 48.0414C84.5862 49.5844 85.9455 53.3346 84.2676 56.4207C82.5897 59.5068 78.5117 60.7569 75.1559 59.2138L69.4637 56.616C67.2761 55.6003 65.5557 53.9206 64.6211 51.8306L62.5821 47.3382L58.4829 60.1318L68.9964 70.6792C70.1434 71.8316 70.9505 73.2184 71.3753 74.7419L76.2603 92.7311C77.1736 96.0711 74.9647 99.4697 71.3115 100.31C67.6584 101.149 63.9839 99.1181 63.0706 95.7586L58.398 78.5507L43.3817 63.4914C40.2383 60.3467 39.0701 55.9519 40.2595 51.8306L43.849 39.4277H43.8702ZM31.5938 78.2382L36.9037 66.0501C37.3497 66.636 37.8595 67.1829 38.3905 67.7299L47.0349 76.4021L43.9552 83.4728C43.4454 84.6447 42.6808 85.719 41.7038 86.6175L28.5991 98.6689C25.9442 101.11 21.6326 101.11 18.9776 98.6689C16.3227 96.2273 16.3227 92.2623 18.9776 89.8208L31.5938 78.2382Z" fill="#005A9C"/>
</g>
<defs>
<clipPath id="clip0_16_406">
<rect width="100" height="100" fill="white" transform="translate(0.98645 0.5)"/>
</clipPath>
</defs>
</svg>
