<svg width="100" height="103" viewBox="0 0 100 103" fill="none" xmlns="http://www.w3.org/2000/svg">
<path d="M15.5 30.6163C15.5 27.1248 18.393 24.2857 21.9508 24.2857C23.6578 24.2857 25.293 24.9558 26.5148 26.1373L29.4258 28.994C25.6523 35.8536 26.2992 44.4237 31.3844 50.6837L31.1328 50.9129C29.4438 52.5705 29.4438 55.2509 31.1328 56.8908C32.8219 58.5308 35.5531 58.5484 37.2242 56.8908L65.9922 28.6942C67.6813 27.0366 67.6813 24.3562 65.9922 22.7163C64.3031 21.0763 61.5719 21.0587 59.9008 22.7163L59.6672 22.9455C53.2883 17.9551 44.5375 17.3203 37.5656 21.0234L34.6367 18.1667C31.2766 14.8516 26.7125 13 21.9508 13C12.032 13 4 20.8824 4 30.6163V86.3571C4 89.4783 6.56953 92 9.75 92C12.9305 92 15.5 89.4783 15.5 86.3571V30.6163ZM50 69.4286C51.525 69.4286 52.9875 68.8341 54.0659 67.7758C55.1442 66.7176 55.75 65.2823 55.75 63.7857C55.75 62.2891 55.1442 60.8539 54.0659 59.7956C52.9875 58.7374 51.525 58.1429 50 58.1429C48.475 58.1429 47.0125 58.7374 45.9341 59.7956C44.8558 60.8539 44.25 62.2891 44.25 63.7857C44.25 65.2823 44.8558 66.7176 45.9341 67.7758C47.0125 68.8341 48.475 69.4286 50 69.4286ZM61.5 80.7143C61.5 79.2177 60.8942 77.7824 59.8159 76.7242C58.7375 75.6659 57.275 75.0714 55.75 75.0714C54.225 75.0714 52.7625 75.6659 51.6841 76.7242C50.6058 77.7824 50 79.2177 50 80.7143C50 82.2109 50.6058 83.6461 51.6841 84.7044C52.7625 85.7626 54.225 86.3571 55.75 86.3571C57.275 86.3571 58.7375 85.7626 59.8159 84.7044C60.8942 83.6461 61.5 82.2109 61.5 80.7143ZM61.5 58.1429C63.025 58.1429 64.4875 57.5483 65.5659 56.4901C66.6442 55.4319 67.25 53.9966 67.25 52.5C67.25 51.0034 66.6442 49.5681 65.5659 48.5099C64.4875 47.4517 63.025 46.8571 61.5 46.8571C59.975 46.8571 58.5125 47.4517 57.4341 48.5099C56.3558 49.5681 55.75 51.0034 55.75 52.5C55.75 53.9966 56.3558 55.4319 57.4341 56.4901C58.5125 57.5483 59.975 58.1429 61.5 58.1429ZM73 69.4286C73 67.932 72.3942 66.4967 71.3159 65.4385C70.2375 64.3802 68.775 63.7857 67.25 63.7857C65.725 63.7857 64.2625 64.3802 63.1841 65.4385C62.1058 66.4967 61.5 67.932 61.5 69.4286C61.5 70.9251 62.1058 72.3604 63.1841 73.4187C64.2625 74.4769 65.725 75.0714 67.25 75.0714C68.775 75.0714 70.2375 74.4769 71.3159 73.4187C72.3942 72.3604 73 70.9251 73 69.4286ZM73 46.8571C74.525 46.8571 75.9875 46.2626 77.0659 45.2044C78.1442 44.1461 78.75 42.7109 78.75 41.2143C78.75 39.7177 78.1442 38.2824 77.0659 37.2242C75.9875 36.1659 74.525 35.5714 73 35.5714C71.475 35.5714 70.0125 36.1659 68.9341 37.2242C67.8558 38.2824 67.25 39.7177 67.25 41.2143C67.25 42.7109 67.8558 44.1461 68.9341 45.2044C70.0125 46.2626 71.475 46.8571 73 46.8571ZM84.5 58.1429C84.5 56.6463 83.8942 55.211 82.8159 54.1528C81.7375 53.0945 80.275 52.5 78.75 52.5C77.225 52.5 75.7625 53.0945 74.6841 54.1528C73.6058 55.211 73 56.6463 73 58.1429C73 59.6394 73.6058 61.0747 74.6841 62.133C75.7625 63.1912 77.225 63.7857 78.75 63.7857C80.275 63.7857 81.7375 63.1912 82.8159 62.133C83.8942 61.0747 84.5 59.6394 84.5 58.1429ZM90.25 52.5C91.775 52.5 93.2375 51.9055 94.3159 50.8472C95.3942 49.789 96 48.3537 96 46.8571C96 45.3606 95.3942 43.9253 94.3159 42.867C93.2375 41.8088 91.775 41.2143 90.25 41.2143C88.725 41.2143 87.2625 41.8088 86.1841 42.867C85.1058 43.9253 84.5 45.3606 84.5 46.8571C84.5 48.3537 85.1058 49.789 86.1841 50.8472C87.2625 51.9055 88.725 52.5 90.25 52.5Z" fill="#005A9C"/>
</svg>
