<svg width="100" height="100" viewBox="0 0 100 100" fill="none" xmlns="http://www.w3.org/2000/svg">
<path d="M18.8 38.375C18.8 29.8137 25.7834 22.875 34.4 22.875H65.6C74.2166 22.875 81.2 29.8137 81.2 38.375V42.4438C76.7516 43.3398 73.4 47.2512 73.4 51.9375V57.75H26.6V51.9375C26.6 47.2512 23.2484 43.3398 18.8 42.4438V38.375ZM77.3 51.9375C77.3 49.4066 78.9331 47.2512 81.2 46.452C81.8094 46.234 82.4675 46.125 83.15 46.125C86.3797 46.125 89 48.7285 89 51.9375V73.25C89 75.3934 87.2572 77.125 85.1 77.125H81.2C79.0428 77.125 77.3 75.3934 77.3 73.25H22.7C22.7 75.3934 20.9572 77.125 18.8 77.125H14.9C12.7428 77.125 11 75.3934 11 73.25V51.9375C11 48.7285 13.6203 46.125 16.85 46.125C17.5325 46.125 18.1906 46.2461 18.8 46.452C21.0669 47.2512 22.7 49.4066 22.7 51.9375V57.75V61.625H26.6H73.4H77.3V57.75V51.9375Z" fill="#005A9C"/>
</svg>
