<svg width="100" height="100" viewBox="0 0 100 100" fill="none" xmlns="http://www.w3.org/2000/svg">
<path d="M34.599 20.0564C32.4597 16.9928 28.8945 15 24.8769 15C18.3309 15 13 20.3316 13 26.8936C13 30.9125 14.994 34.4598 18.0558 36.599C21.5065 29.3725 27.3723 23.5071 34.599 20.0564Z" fill="#005A9C"/>
<path d="M75.1071 15C71.0071 15 67.3949 17.0905 65.2557 20.2505C72.3853 23.7823 78.1534 29.6641 81.5239 36.8754C84.8131 34.785 87 31.0901 87 26.8936C87 20.3316 81.6691 15 75.1071 15Z" fill="#005A9C"/>
<path d="M81.5535 51.7352C81.5506 34.3062 67.4295 20.1865 50.0018 20.1829C32.5736 20.1865 18.4513 34.3062 18.4483 51.7352C18.4495 61.6515 23.0318 70.4885 30.1858 76.2728L28.0627 79.976C27.0514 81.7413 27.6606 83.9891 29.4247 84.9991C31.186 86.0067 33.4378 85.3956 34.4455 83.6351L36.4222 80.182C40.5395 82.1521 45.1331 83.2861 50.0019 83.2884C54.8708 83.2861 59.4627 82.1521 63.5799 80.183L65.556 83.635C66.5642 85.3955 68.816 86.0066 70.5773 84.9989C72.3414 83.9889 72.9506 81.7412 71.9393 79.9759L69.8162 76.2727C76.9694 70.4886 81.5518 61.6526 81.5535 51.7352ZM50.0018 27.9623C56.5794 27.9634 62.4987 30.615 66.8125 34.9245C71.1216 39.2376 73.773 45.1576 73.7747 51.7352C73.773 58.3127 71.1214 64.2327 66.8125 68.5471C62.4987 72.8567 56.5794 75.5081 50.0018 75.5093C43.4237 75.5081 37.5043 72.8542 33.1893 68.5471C28.8804 64.2328 26.2283 58.3128 26.2271 51.7352C26.2283 45.1576 28.8804 39.2376 33.1893 34.9245C37.5043 30.615 43.4237 27.9634 50.0018 27.9623Z" fill="#005A9C"/>
<path d="M50.0018 54.1826L63.725 53.8945C64.8422 53.8945 65.7476 52.9879 65.7476 51.8707C65.7476 50.7535 64.8422 49.8482 63.725 49.8482L52.2471 49.6064L51.7927 33.9702C51.7927 32.9803 50.9904 32.1799 50.0018 32.1799C49.0143 32.1799 48.212 32.9803 48.212 33.9702L47.6897 51.8707C47.6898 53.1477 48.725 54.1826 50.0018 54.1826Z" fill="#005A9C"/>
</svg>
