<svg width="100" height="100" viewBox="0 0 100 100" fill="none" xmlns="http://www.w3.org/2000/svg">
<g clip-path="url(#clip0_28_694)">
<path d="M28.8125 12.1875V27.75H46.5625V12.1875C46.5625 9.31816 44.5795 7 42.125 7H33.25C30.7955 7 28.8125 9.31816 28.8125 12.1875ZM28.8125 32.9375C21.4629 32.9375 15.5 39.9082 15.5 48.5V82.2188C15.5 86.5146 18.4814 90 22.1562 90H53.2188C56.8936 90 59.875 86.5146 59.875 82.2188V48.5C59.875 39.9082 53.9121 32.9375 46.5625 32.9375H28.8125ZM37.6875 48.5C40.6297 48.5 43.4515 49.8663 45.532 52.2985C47.6124 54.7306 48.7812 58.0292 48.7812 61.4688C48.7812 64.9083 47.6124 68.2069 45.532 70.639C43.4515 73.0712 40.6297 74.4375 37.6875 74.4375C34.7453 74.4375 31.9235 73.0712 29.843 70.639C27.7626 68.2069 26.5938 64.9083 26.5938 61.4688C26.5938 58.0292 27.7626 54.7306 29.843 52.2985C31.9235 49.8663 34.7453 48.5 37.6875 48.5ZM68.75 14.7812C68.75 14.5543 68.6113 14.2949 68.4449 14.1977L64.3125 12.1875L62.593 7.35664C62.5098 7.16211 62.2879 7 62.0938 7C61.8996 7 61.6777 7.16211 61.5945 7.35664L59.875 12.1875L55.7426 14.1977C55.5762 14.2949 55.4375 14.5543 55.4375 14.7812C55.4375 15.0082 55.5762 15.2676 55.7426 15.3648L59.875 17.375L61.5945 22.2059C61.6777 22.4004 61.8996 22.5625 62.0938 22.5625C62.2879 22.5625 62.5098 22.4004 62.593 22.2059L64.3125 17.375L68.4449 15.3648C68.6113 15.2676 68.75 15.0082 68.75 14.7812ZM79.3445 22.2059C79.4277 22.4004 79.6496 22.5625 79.8438 22.5625C80.0379 22.5625 80.2598 22.4004 80.343 22.2059L82.0625 17.375L86.1949 15.3648C86.3613 15.2676 86.5 15.0082 86.5 14.7812C86.5 14.5543 86.3613 14.2949 86.1949 14.1977L82.0625 12.1875L80.343 7.35664C80.2598 7.16211 80.0379 7 79.8438 7C79.6496 7 79.4277 7.16211 79.3445 7.35664L77.625 12.1875L73.4926 14.1977C73.3262 14.2949 73.1875 14.5543 73.1875 14.7812C73.1875 15.0082 73.3262 15.2676 73.4926 15.3648L77.625 17.375L79.3445 22.2059ZM80.343 38.4816C80.2598 38.2871 80.0379 38.125 79.8438 38.125C79.6496 38.125 79.4277 38.2871 79.3445 38.4816L77.625 43.3125L73.4926 45.3227C73.3262 45.4199 73.1875 45.6793 73.1875 45.9062C73.1875 46.1332 73.3262 46.3926 73.4926 46.4898L77.625 48.5L79.3445 53.3309C79.4277 53.5254 79.6496 53.6875 79.8438 53.6875C80.0379 53.6875 80.2598 53.5254 80.343 53.3309L82.0625 48.5L86.1949 46.4898C86.3613 46.3926 86.5 46.1332 86.5 45.9062C86.5 45.6793 86.3613 45.4199 86.1949 45.3227L82.0625 43.3125L80.343 38.4816ZM77.625 30.3438C77.625 30.1168 77.4863 29.8574 77.3199 29.7602L73.1875 27.75L71.468 22.9191C71.3848 22.7246 71.1629 22.5625 70.9688 22.5625C70.7746 22.5625 70.5527 22.7246 70.4695 22.9191L68.75 27.75L64.6176 29.7602C64.4512 29.8574 64.3125 30.1168 64.3125 30.3438C64.3125 30.5707 64.4512 30.8301 64.6176 30.9273L68.75 32.9375L70.4695 37.7684C70.5527 37.9629 70.7746 38.125 70.9688 38.125C71.1629 38.125 71.3848 37.9629 71.468 37.7684L73.1875 32.9375L77.3199 30.9273C77.4863 30.8301 77.625 30.5707 77.625 30.3438Z" fill="#005A9C"/>
</g>
<defs>
<clipPath id="clip0_28_694">
<rect width="71" height="83" fill="white" transform="translate(15.5 7)"/>
</clipPath>
</defs>
</svg>
