<svg width="100" height="100" viewBox="0 0 100 100" fill="none" xmlns="http://www.w3.org/2000/svg">
<path d="M40.3333 23.807C40.3333 22.6275 39.7943 21.5195 38.8599 20.8047C37.9255 20.0898 36.7156 19.8277 35.5656 20.1136L14.0151 25.475C11.4635 26.1064 9.66667 28.3939 9.66667 31.015V73.3695H5.83333C3.71302 73.3695 2 75.0732 2 77.182C2 79.2908 3.71302 80.9945 5.83333 80.9945H13.5H36.5H40.3333V77.182V23.807ZM32.6667 50.4945C32.6667 52.6033 31.3849 54.307 29.7917 54.307C28.1984 54.307 26.9167 52.6033 26.9167 50.4945C26.9167 48.3857 28.1984 46.682 29.7917 46.682C31.3849 46.682 32.6667 48.3857 32.6667 50.4945ZM44.1667 35.2445H55.6667V77.182C55.6667 79.2908 57.3797 80.9945 59.5 80.9945H67.1667C69.287 80.9945 71 79.2908 71 77.182C71 75.0732 69.287 73.3695 67.1667 73.3695H63.3333V35.2445C63.3333 31.0388 59.8953 27.6195 55.6667 27.6195H44.1667V35.2445Z" fill="#005A9C"/>
<path d="M81.8125 34.3069C81.8125 35.586 82.8459 36.6194 84.125 36.6194H86.4375C87.7166 36.6194 88.75 37.6528 88.75 38.9319C88.75 40.211 87.7166 41.2444 86.4375 41.2444H63.3125C62.0334 41.2444 61 42.2778 61 43.5569C61 44.836 62.0334 45.8694 63.3125 45.8694H86.4375C90.2676 45.8694 93.375 42.762 93.375 38.9319C93.375 35.1018 90.2676 31.9944 86.4375 31.9944H84.125C82.8459 31.9944 81.8125 33.0278 81.8125 34.3069ZM86.4375 59.7444C86.4375 61.0235 87.4709 62.0569 88.75 62.0569H91.0625C94.8926 62.0569 98 58.9495 98 55.1194C98 51.2893 94.8926 48.1819 91.0625 48.1819H63.3125C62.0334 48.1819 61 49.2153 61 50.4944C61 51.7735 62.0334 52.8069 63.3125 52.8069H91.0625C92.3416 52.8069 93.375 53.8403 93.375 55.1194C93.375 56.3985 92.3416 57.4319 91.0625 57.4319H88.75C87.4709 57.4319 86.4375 58.4653 86.4375 59.7444ZM70.25 68.9944H72.5625C76.3926 68.9944 79.5 65.887 79.5 62.0569C79.5 58.2268 76.3926 55.1194 72.5625 55.1194H63.3125C62.0334 55.1194 61 56.1528 61 57.4319C61 58.711 62.0334 59.7444 63.3125 59.7444H72.5625C73.8416 59.7444 74.875 60.7778 74.875 62.0569C74.875 63.336 73.8416 64.3694 72.5625 64.3694H70.25C68.9709 64.3694 67.9375 65.4028 67.9375 66.6819C67.9375 67.961 68.9709 68.9944 70.25 68.9944Z" fill="#005C9A"/>
</svg>
