<svg width="100" height="100" viewBox="0 0 100 100" fill="none" xmlns="http://www.w3.org/2000/svg">
<g clip-path="url(#clip0_28_683)">
<path d="M36.1369 14.5C37.1362 14.5 37.969 15.3016 38.2765 16.3562C39.8525 21.7984 44.5034 25.75 50 25.75C55.4965 25.75 60.1475 21.7984 61.7234 16.3562C62.0309 15.3016 62.8637 14.5 63.8631 14.5H65.4775C68.3603 14.5 71.1406 15.6109 73.3572 17.6359L89.5266 32.4156C90.3722 33.1891 90.8975 34.3141 90.9872 35.5234C91.0769 36.7328 90.7181 37.9281 89.9878 38.8422L82.8128 47.8422C81.3522 49.6844 78.8153 49.8953 77.0984 48.3344L70.5 42.3016V77.5C70.5 82.4641 66.8228 86.5 62.3 86.5H37.7C33.1772 86.5 29.5 82.4641 29.5 77.5V42.3016L22.9015 48.3344C21.1975 49.8953 18.6606 49.6844 17.1872 47.8422L10.0122 38.8422C9.28186 37.9281 8.92311 36.7328 9.0128 35.5234C9.10249 34.3141 9.6278 33.1891 10.4734 32.4156L26.6428 17.6359C28.8594 15.6109 31.6397 14.5 34.5225 14.5H36.1369Z" fill="#005A9C"/>
</g>
<defs>
<clipPath id="clip0_28_683">
<rect width="82" height="72" fill="white" transform="translate(9 14.5)"/>
</clipPath>
</defs>
</svg>
