<svg width="100" height="100" viewBox="0 0 100 100" fill="none" xmlns="http://www.w3.org/2000/svg">
<g clip-path="url(#clip0_28_1343)">
<path d="M58.6 78C58.6 79.4625 58.9923 80.825 59.6884 82H59.6125C56.8154 82 54.55 79.7625 54.55 77V74V66C54.55 63.7875 52.7401 62 50.5 62H42.4C40.1598 62 38.35 63.7875 38.35 66V74V77C38.35 79.7625 36.0845 82 33.2875 82H30.25H26.2126C26.0228 82 25.8329 81.9875 25.6431 81.975C25.4912 81.9875 25.3394 82 25.1875 82H23.1625C20.3654 82 18.1 79.7625 18.1 77V63C18.1 62.8875 18.1 62.7625 18.1126 62.65V53.9375H14.0626C11.7845 53.9375 10.0126 52.1875 10.0126 49.925C10.0126 48.8 10.3923 47.8 11.2783 46.925L43.7162 19C44.6022 18.125 45.6147 18 46.5006 18C47.3865 18 48.399 18.25 49.1584 18.875L72.1042 38.7875C66.5987 40.7125 62.65 45.9 62.65 52V55.075C60.2326 56.4625 58.6 59.0375 58.6 62V78ZM76.825 48C74.5848 48 72.775 49.7875 72.775 52V58H80.875V52C80.875 49.7875 79.0651 48 76.825 48ZM66.7 52C66.7 46.475 71.2309 42 76.825 42C82.419 42 86.95 46.475 86.95 52V58C89.1901 58 91 59.7875 91 62V78C91 80.2125 89.1901 82 86.95 82H66.7C64.4598 82 62.65 80.2125 62.65 78V62C62.65 59.7875 64.4598 58 66.7 58V52Z" fill="#005A9C"/>
</g>
<defs>
<clipPath id="clip0_28_1343">
<rect width="81" height="64" fill="white" transform="translate(10 18)"/>
</clipPath>
</defs>
</svg>
