<svg width="100" height="100" viewBox="0 0 100 100" fill="none" xmlns="http://www.w3.org/2000/svg">
<g clip-path="url(#clip0_28_685)">
<path d="M45 8.5H55C56.6625 8.5 58 10.2555 58 12.4375V19H42V12.4375C42 10.2555 43.3375 8.5 45 8.5ZM34 35.9805C34 32.7812 35.25 29.8117 37.325 28.1219L39.3 26.4977C41.0875 25.0211 43.15 24.25 45.2625 24.25H54.7375C56.85 24.25 58.9125 25.0211 60.7 26.4977L62.675 28.1219C64.75 29.8117 66 32.7812 66 35.9805C66 38.7695 65.0625 41.2797 63.575 42.9695C65.075 44.8727 66 47.5469 66 50.5C66 53.6336 64.95 56.4555 63.2875 58.375C64.95 60.2945 66 63.1164 66 66.25C66 69.3836 64.95 72.2055 63.2875 74.125C64.95 76.0445 66 78.8664 66 82C66 87.7914 62.4125 92.5 58 92.5H42C37.5875 92.5 34 87.7914 34 82C34 78.8664 35.05 76.0445 36.7125 74.125C35.05 72.2055 34 69.3836 34 66.25C34 63.1164 35.05 60.2945 36.7125 58.375C35.05 56.4555 34 53.6336 34 50.5C34 47.5469 34.925 44.8727 36.425 42.9695C34.9375 41.2633 34 38.7695 34 35.9805ZM42 47.875C42 49.3187 42.9 50.5 44 50.5H56C57.1 50.5 58 49.3187 58 47.875C58 46.4313 57.1 45.25 56 45.25H44C42.9 45.25 42 46.4313 42 47.875ZM44 66.25C42.9 66.25 42 67.4313 42 68.875C42 70.3187 42.9 71.5 44 71.5H56C57.1 71.5 58 70.3187 58 68.875C58 67.4313 57.1 66.25 56 66.25H44Z" fill="#005A9C"/>
</g>
<defs>
<clipPath id="clip0_28_685">
<rect width="40" height="84" fill="white" transform="translate(30 8.5)"/>
</clipPath>
</defs>
</svg>
