<svg width="100" height="100" viewBox="0 0 100 100" fill="none" xmlns="http://www.w3.org/2000/svg">
<path d="M23.3056 25.8125C19.2109 25.8125 15.8889 29.1299 15.8889 33.2188V50.5H30.7222V33.2188C30.7222 29.1299 27.4002 25.8125 23.3056 25.8125ZM6 33.2188C6 23.6678 13.7411 15.9375 23.3056 15.9375C32.87 15.9375 40.6111 23.6678 40.6111 33.2188V67.7812C40.6111 77.3322 32.87 85.0625 23.3056 85.0625C13.7411 85.0625 6 77.3322 6 67.7812V33.2188ZM91.7398 72.6262C90.6427 74.524 88.0778 74.6475 86.5172 73.1045L57.5304 44.1584C55.9852 42.6154 56.0934 40.0387 58.0094 38.9432C61.625 36.8756 65.8123 35.6875 70.2778 35.6875C83.9368 35.6875 95 46.7352 95 60.375C95 64.8342 93.8103 69.0156 91.7398 72.6262ZM82.5462 81.8068C78.9306 83.8744 74.7432 85.0625 70.2778 85.0625C56.6188 85.0625 45.5556 74.0148 45.5556 60.375C45.5556 55.9158 46.7453 51.7344 48.8158 48.1238C49.9129 46.226 52.4778 46.1025 54.0384 47.6455L83.0252 76.5916C84.5703 78.1346 84.4622 80.7113 82.5462 81.8068Z" fill="#00519C"/>
</svg>
