<svg width="100" height="100" viewBox="0 0 100 100" fill="none" xmlns="http://www.w3.org/2000/svg">
<g clip-path="url(#clip0_28_1243)">
<path d="M40 26.375C40 24.9375 39.0938 23.6719 37.9375 22.8125C36.125 21.4531 35 19.5781 35 17.5C35 13.3594 39.4844 10 45 10C50.5156 10 55 13.3594 55 17.5C55 19.5781 53.875 21.4531 52.0625 22.8125C50.9062 23.6719 50 24.9375 50 26.375C50 28.375 51.625 30 53.625 30H62.5C66.6406 30 70 33.3594 70 37.5V46.375C70 48.375 71.625 50 73.625 50C75.0625 50 76.3281 49.0938 77.1875 47.9375C78.5469 46.125 80.4219 45 82.5 45C86.6406 45 90 49.4844 90 55C90 60.5156 86.6406 65 82.5 65C80.4219 65 78.5469 63.875 77.1875 62.0625C76.3281 60.9062 75.0625 60 73.625 60C71.625 60 70 61.625 70 63.625V82.5C70 86.6406 66.6406 90 62.5 90H53.625C51.625 90 50 88.375 50 86.375C50 84.9375 50.9062 83.6719 52.0625 82.8125C53.875 81.4531 55 79.5781 55 77.5C55 73.3594 50.5156 70 45 70C39.4844 70 35 73.3594 35 77.5C35 79.5781 36.125 81.4531 37.9375 82.8125C39.0938 83.6719 40 84.9375 40 86.375C40 88.375 38.375 90 36.375 90H17.5C13.3594 90 10 86.6406 10 82.5V63.625C10 61.625 11.625 60 13.625 60C15.0625 60 16.3281 60.9062 17.1875 62.0625C18.5469 63.875 20.4219 65 22.5 65C26.6406 65 30 60.5156 30 55C30 49.4844 26.6406 45 22.5 45C20.4219 45 18.5469 46.125 17.1875 47.9375C16.3281 49.0938 15.0625 50 13.625 50C11.625 50 10 48.375 10 46.375V37.5C10 33.3594 13.3594 30 17.5 30H36.375C38.375 30 40 28.375 40 26.375Z" fill="#005A9C"/>
</g>
<defs>
<clipPath id="clip0_28_1243">
<rect width="80" height="80" fill="white" transform="translate(10 10)"/>
</clipPath>
</defs>
</svg>
