<svg xmlns="http://www.w3.org/2000/svg" width="100" height="100" fill="none"><g clip-path="url(#a)"><path fill="#005A9C" d="m40 26-2-3c-2-2-3-3-3-5 0-5 4-8 10-8s10 3 10 8c0 2-1 3-3 5l-2 3c0 2 2 4 4 4h9c4 0 7 3 7 8v8c0 2 2 4 4 4l3-2c2-2 3-3 6-3 4 0 7 4 7 10s-3 10-7 10c-3 0-4-1-6-3l-3-2c-2 0-4 2-4 4v19c0 4-3 7-7 7h-9c-2 0-4-2-4-4l2-3c2-2 3-3 3-5 0-5-4-8-10-8s-10 3-10 8c0 2 1 3 3 5l2 3c0 2-2 4-4 4H18c-5 0-8-3-8-7V64c0-2 2-4 4-4l3 2c2 2 3 3 6 3 4 0 7-4 7-10s-3-10-7-10c-3 0-4 1-6 3l-3 2c-2 0-4-2-4-4v-8c0-5 3-8 8-8h18c2 0 4-2 4-4Z"/></g><defs><clipPath id="a"><path fill="#fff" d="M10 10h80v80H10z"/></clipPath></defs></svg>