<svg xmlns="http://www.w3.org/2000/svg" width="100" height="103" fill="none"><path fill="#005A9C" d="M16 31c0-4 2-7 6-7l5 2 2 3c-3 7-3 15 2 22-2 2-2 4 0 6s5 2 6 0l29-28c2-2 2-5 0-6-2-2-4-2-6 0-7-5-15-6-22-2l-3-3A18 18 0 0 0 4 31v55c0 3 3 6 6 6s6-3 6-6V31Zm34 38 4-1a6 6 0 0 0 0-8 6 6 0 0 0-8 0 6 6 0 0 0 0 8l4 1Zm12 12-2-4a6 6 0 0 0-8 0 6 6 0 0 0 0 8 6 6 0 0 0 8 0l2-4Zm0-23 4-2a6 6 0 0 0 0-7 6 6 0 0 0-9 0 6 6 0 0 0 0 7c2 2 3 2 5 2Zm11 11-2-4a6 6 0 0 0-8 0 6 6 0 0 0 0 8 6 6 0 0 0 8 0l2-4Zm0-22 4-2a6 6 0 0 0 0-8 6 6 0 0 0-8 0 6 6 0 0 0 0 8l4 2Zm12 11-2-4a6 6 0 0 0-8 0 6 6 0 0 0 0 8 6 6 0 0 0 8 0l2-4Zm5-5 4-2a6 6 0 0 0 0-8 6 6 0 0 0-8 0 6 6 0 0 0 0 8l4 2Z"/></svg>