<svg xmlns="http://www.w3.org/2000/svg" width="100" height="100" fill="none"><path fill="#005A9C" d="M50 42c2 0 3-1 3-3V19l2 3 5 5 2 1c2 0 3-1 3-3l-1-2-12-11h-4L36 23l-1 2c0 2 1 3 3 3l2-1 5-5 2-3v20c0 2 1 3 3 3Zm19 10h5l6-6c2-2 2-4 1-5h-5l-6 7c-2 1-2 3-1 4Zm-38 0c1-1 1-3-1-4l-6-7h-5c-1 1-1 3 1 5l6 6h5ZM5 90h90c2 0 3-2 3-4 0-1-1-3-3-3H67c2-3 4-7 4-11 0-12-10-21-21-21s-20 9-20 21c0 4 1 8 3 11H5c-2 0-3 2-3 3 0 2 1 4 3 4Zm31-18c0-8 6-15 14-15s14 7 14 15c0 5-2 9-6 11H42c-4-2-6-6-6-11Zm-26 2h9c2 0 4-2 4-3 0-2-2-3-4-3h-9c-2 0-3 1-3 3 0 1 1 3 3 3Zm71 0h9c2 0 3-2 3-3 0-2-1-3-3-3h-9c-2 0-4 1-4 3 0 1 2 3 4 3Z"/></svg>