<svg width="100" height="100" viewBox="0 0 100 100" fill="none" xmlns="http://www.w3.org/2000/svg">
<path d="M50.0183 41.6498C50.6855 41.6498 51.2416 41.3911 52.0199 40.6891L63.5845 29.9371C64.2145 29.3459 64.4741 28.7549 64.4741 27.9789C64.4741 26.5379 63.4362 25.5034 61.9535 25.5034C61.2122 25.5034 60.508 25.836 59.9521 26.3533L55.3188 31.0087L52.576 34.1862L53.0207 28.6071V14.7514C53.0207 12.9411 51.6493 11.5 50.0183 11.5C48.3875 11.5 46.979 12.9411 46.979 14.7514V28.6071L47.4238 34.1862L45.0515 31.3782L40.0477 26.3533C39.5288 25.836 38.7875 25.5034 38.0833 25.5034C36.6006 25.5034 35.5627 26.5379 35.5627 27.9789C35.5627 28.7549 35.8223 29.3459 36.4523 29.9371L48.0169 40.6891C48.7952 41.3911 49.3141 41.6498 50.0183 41.6498ZM69.107 51.7736C70.2935 52.9189 72.2582 52.9189 73.629 51.5889L80.0785 45.1599C81.4501 43.7927 81.4129 41.8715 80.2273 40.726C79.1151 39.5438 77.1507 39.5067 75.7789 40.8738L69.3294 47.3028C67.9954 48.67 67.9582 50.6651 69.107 51.7736ZM26.4074 51.5889C27.779 52.9189 29.7433 52.9559 30.8924 51.7736C32.0414 50.6281 32.0414 48.67 30.67 47.3028L24.2206 40.8738C22.8492 39.5067 20.9588 39.5806 19.7727 40.726C18.5866 41.8345 18.5866 43.7927 19.9579 45.1599L26.4074 51.5889ZM5.72474 88.5H94.2753C96.054 88.5 97.5 87.17 97.5 85.5072C97.5 83.8816 96.054 82.5514 94.2753 82.5514H66.4386C68.8478 79.263 70.2935 75.2356 70.2935 70.8387C70.2935 59.7543 61.0639 50.5912 50.0183 50.5912C38.9357 50.5912 29.7433 59.7543 29.7433 70.8387C29.7433 75.2356 31.1518 79.263 33.5982 82.5514H5.72474C3.98268 82.5514 2.5 83.8816 2.5 85.5072C2.5 87.17 3.98268 88.5 5.72474 88.5ZM35.711 70.8387C35.711 63.0058 42.1605 56.5768 50.0183 56.5768C57.8763 56.5768 64.3258 63.0058 64.3258 70.8387C64.3258 75.7159 61.8053 80.0389 57.9876 82.5514H42.0122C38.2315 80.0389 35.711 75.7159 35.711 70.8387ZM10.5433 72.9079H19.6614C21.5889 72.9079 23.0344 71.5409 22.9974 69.9151C22.9603 68.2525 21.5889 66.8854 19.6614 66.8854H10.5433C8.61579 66.8854 7.2444 68.2525 7.2444 69.9151C7.2444 71.5409 8.61579 72.9079 10.5433 72.9079ZM80.3752 72.9079H89.4937C91.3839 72.9079 92.7921 71.5409 92.7921 69.9151C92.7921 68.2525 91.3839 66.8854 89.4937 66.8854H80.3752C78.4479 66.8854 77.0026 68.2525 77.0397 69.9151C77.0762 71.5409 78.4479 72.9079 80.3752 72.9079Z" fill="#005A9C"/>
</svg>
