<svg xmlns="http://www.w3.org/2000/svg" width="100" height="100" fill="none"><path fill="#005A9C" d="m50 42 2-1 12-11v-2l-2-2h-2l-5 5-2 3V15c0-2-1-3-3-3s-3 1-3 3v19l-2-3-5-5h-2l-2 2v2l12 11 2 1Zm19 10h5l6-7v-4h-4l-7 6v5Zm-43 0h5v-5l-7-6h-4v4l6 7ZM6 89h88c2 0 4-2 4-3 0-2-2-3-4-3H66c3-4 4-8 4-12 0-11-9-20-20-20s-20 9-20 20c0 4 1 8 4 12H6c-2 0-3 1-3 3 0 1 1 3 3 3Zm30-18a14 14 0 0 1 28 0c0 5-2 9-6 12H42c-4-3-6-7-6-12Zm-25 2h9c2 0 3-1 3-3s-1-3-3-3h-9c-2 0-4 1-4 3s2 3 4 3Zm69 0h9c2 0 4-1 4-3s-2-3-4-3h-9c-2 0-3 1-3 3s1 3 3 3Z"/></svg>