<svg xmlns="http://www.w3.org/2000/svg" width="100" height="100" fill="none"><g fill="#005A9C" clip-path="url(#a)"><path d="M77 66c2 0 4 2 4 4 0 3-2 5-4 5H9c-3 0-4-2-4-5 0-2 1-4 4-4h68Z"/><path d="M55 66c-2 0-4 2-4 4 0 3 2 5 4 5h37c2 0 4-2 4-5 0-2-2-4-4-4H55Z"/><path d="M93 64V49l-1-2-2-2h-5l-1 1-1-1h-1l3-1c4-1 7-3 9-5a11 11 0 0 0-2-15 2 2 0 0 0-2 0v1a7 7 0 0 1-7 6l-12-2a67 67 0 0 0-11-1c-5 0-9 4-9 9 1 3 3 6 6 7h1l-2 1-2 2-1 2v16H9c-3 0-6 2-6 5 0 4 3 6 6 6h83c3 0 6-3 6-6s-2-5-5-6Zm-9-15 2-1 2-1 2 2v15h-8V49h2ZM55 36a5 5 0 0 1 5-5l11 1 12 2h1c3 0 6-2 8-5a8 8 0 0 1-1 8c-2 4-9 6-20 6a55 55 0 0 1-13-2c-2 0-3-2-3-5Zm24 12v16h-4V49c1 1 3 1 4-1Zm-3-3h2l-1 1-1-1Zm-4 3v16h-5V49c1 1 3 1 5-1Zm-4-3 2 1h-1l-1-1Zm-5 0-1 1-1-1h-1 3Zm-7 4 2-2 2 1c1 2 3 2 4 0v16h-8V49ZM9 73c-2 0-3-1-3-3 0-1 1-2 3-2h41a6 6 0 0 0 0 5H9Zm83 0H55c-1 0-3-1-3-3l3-3h37c2 0 3 2 3 3 0 2-1 3-3 3Z"/></g><defs><clipPath id="a"><path fill="#fff" d="M3 3h95v94H3z"/></clipPath></defs></svg>