<svg width="100" height="100" viewBox="0 0 100 100" fill="none" xmlns="http://www.w3.org/2000/svg">
<g clip-path="url(#clip0_16_265)">
<path d="M77.0647 66.24C79.383 66.24 81.262 68.0998 81.262 70.3934C81.262 72.6867 79.383 74.5465 77.0647 74.5465H8.70574C6.38752 74.5465 4.50848 72.6867 4.50848 70.3934C4.50848 68.0998 6.38752 66.24 8.70574 66.24H77.0647Z" fill="#005A9C"/>
<path d="M55.2661 65.7056C52.7991 65.7056 50.7985 67.6845 50.7985 70.1263C50.7985 72.5674 52.7989 74.5469 55.2661 74.5469H92.0237C94.4909 74.5469 96.4915 72.5676 96.4915 70.1263C96.4915 67.6847 94.4911 65.7056 92.0237 65.7056H55.2661Z" fill="#005A9C"/>
<path d="M92.8904 64.2758V48.5467C92.8904 48.151 92.7316 47.7714 92.4488 47.4915L89.9372 45.006C88.7067 43.7891 86.7052 43.7898 85.4745 45.0065L84.1283 46.3389C84.1018 46.3636 84.0666 46.3773 84.0301 46.3772C83.9936 46.377 83.9585 46.3629 83.9322 46.3379L82.5864 45.0072C82.4733 44.8969 82.352 44.7951 82.2235 44.7027C83.0112 44.5686 83.7914 44.4159 84.5514 44.2374C89.2802 43.1269 92.3668 41.2988 93.7287 38.8029C95.1469 36.7622 95.8334 34.3739 95.7146 31.8906C95.5822 29.0581 94.3731 26.3796 92.3297 24.3917C92.1866 24.2517 92.0167 24.1415 91.8299 24.0676C91.6431 23.9936 91.4433 23.9573 91.2421 23.9609C91.041 23.9645 90.8426 24.0079 90.6586 24.0886C90.4747 24.1692 90.3089 24.2854 90.171 24.4304C89.9386 24.674 89.7962 24.9881 89.7667 25.3218C89.3088 28.4166 86.6943 30.7622 83.5242 30.9105C83.2707 30.9221 83.0169 30.9278 82.7631 30.9274C79.639 30.9276 75.4551 30.1406 71.4091 29.3794C67.269 28.6004 63.3586 27.8647 60.298 27.8647C60.0371 27.8646 59.7762 27.8705 59.5155 27.8824C54.8754 28.0997 51.2786 32.0117 51.4981 36.6029C51.6663 40.1259 54.0642 43.1667 57.4712 44.188C57.4805 44.1914 57.491 44.1947 57.5005 44.1981C56.9589 44.3362 56.4645 44.6152 56.0686 45.0061L53.558 47.4913C53.2752 47.7712 53.1164 48.1508 53.1164 48.5466V64.6103C53.0056 64.6528 52.896 64.6985 52.788 64.7474H8.70575C5.55962 64.7474 3 67.2803 3 70.3937C3 73.5069 5.55962 76.0394 8.70575 76.0394H92.0239C95.3192 76.0394 98.0002 73.3866 98.0002 70.1262C98 67.1569 95.7762 64.6925 92.8904 64.2758ZM84.03 49.3623H84.0305C84.8744 49.3623 85.6669 49.0382 86.2619 48.4496L87.6077 47.1175C87.6593 47.0668 87.753 47.067 87.804 47.1171L89.8734 49.1651V64.213H82.0814V48.6942C82.636 49.1283 83.3228 49.3638 84.03 49.3623ZM54.5115 36.4622C54.3709 33.515 56.6795 31.0038 59.6582 30.8641C59.8713 30.8545 60.0847 30.8498 60.298 30.85C63.0743 30.85 66.8491 31.5601 70.8456 32.3121C75.0291 33.0992 79.3551 33.9132 82.7634 33.913C83.075 33.913 83.3789 33.9062 83.6669 33.8925C87.211 33.7267 90.2783 31.6721 91.8118 28.685C92.3432 29.7263 92.6463 30.8669 92.7011 32.0321C92.788 33.8521 92.287 35.6023 91.252 37.0984C91.1962 37.1696 91.1472 37.2458 91.1056 37.326C89.4034 40.5865 82.0005 42.5331 71.3026 42.5331C64.778 42.5331 59.5771 41.7947 58.4989 41.3816C58.4604 41.3667 58.4212 41.3535 58.3815 41.342C56.1757 40.6968 54.6204 38.7357 54.5115 36.4622ZM78.9104 48.4498L79.0644 48.2974V64.213H74.6597V48.6395C75.898 49.6623 77.7483 49.5997 78.9104 48.4498ZM75.6366 45.4042C76.3852 45.3641 77.133 45.3119 77.8799 45.2476L76.777 46.339C76.7259 46.3899 76.6324 46.3895 76.5812 46.3394L75.6366 45.4042ZM71.5598 48.4494L71.6427 48.3674V64.2128H67.2382V48.5763C68.4758 49.6619 70.3739 49.6221 71.5598 48.4494ZM68.3487 45.4668C68.9849 45.4881 69.6245 45.5037 70.2615 45.5116L69.4265 46.3385C69.3748 46.3897 69.2809 46.3897 69.23 46.3392L68.3487 45.4668ZM63.273 45.1523L62.074 46.339C62.023 46.3899 61.9293 46.3895 61.8781 46.3394L60.5312 45.006C60.459 44.9348 60.3833 44.8671 60.3045 44.8031C61.183 44.934 62.1876 45.0519 63.273 45.1523ZM56.1332 49.1649L58.2015 47.1178C58.2527 47.067 58.3468 47.0666 58.398 47.1169L59.7447 48.4502C60.9754 49.6676 62.9773 49.6676 64.2076 48.4498L64.2206 48.437V64.2132H56.133V49.1651L56.1332 49.1649ZM8.70575 73.0541C7.22323 73.0541 6.01699 71.8606 6.01699 70.3937C6.01699 68.9266 7.22323 67.7328 8.70575 67.7328H49.8035C49.4647 68.4862 49.2898 69.3016 49.2902 70.1262C49.2894 71.1535 49.561 72.1631 50.0777 73.0541H8.70575ZM92.0237 73.0541H55.2661C53.6346 73.0541 52.307 71.7407 52.307 70.1262C52.307 68.5118 53.6344 67.198 55.2661 67.198H92.0237C93.6552 67.198 94.983 68.5115 94.983 70.1262C94.983 71.7407 93.6556 73.0541 92.0237 73.0541Z" fill="#005A9C"/>
</g>
<defs>
<clipPath id="clip0_16_265">
<rect width="95" height="94" fill="white" transform="translate(3 3)"/>
</clipPath>
</defs>
</svg>
