<svg width="100" height="100" viewBox="0 0 100 100" fill="none" xmlns="http://www.w3.org/2000/svg">
<path d="M73.5928 55.9785C73.1279 54.6504 71.9326 53.8203 70.5381 53.8203H68.4297V15.6367C68.4297 11.7493 65.3445 8.66406 61.457 8.66406H23.9375C19.8104 8.66406 16.3008 12.1736 16.3008 16.3008V77.0625C16.3008 81.0137 19.9365 84.3672 23.8545 84.3672H61.7768C62.1775 84.3672 62.5305 84.6939 62.5006 85.0937C62.4691 85.514 62.1178 85.6953 61.7061 85.6953H46.5986L58.1367 92.3359H84.6992L73.5928 55.9785ZM42.8799 81.1133C41.8177 81.1133 41.0208 80.3167 41.0205 79.2546C41.0202 78.2435 41.8695 77.3945 42.8805 77.3945C43.9427 77.3949 44.7393 78.1917 44.7393 79.2539C44.7061 80.3164 43.9424 81.1133 42.8799 81.1133ZM63.4492 53.8203H56.9248C55.165 53.8203 53.6709 55.3809 53.6709 57.1406C53.6709 58.9004 55.165 60.4609 56.9248 60.4609H63.499V74.4062H21.6133V18.293H63.4492V53.8203ZM51.0817 26.7116L48.2272 29.5661C50.6288 31.4444 52.1734 34.3689 52.1734 37.6474C52.1734 43.3059 47.5702 47.9092 41.9117 47.9092C36.2532 47.9092 31.6499 43.3055 31.6499 37.6471C31.6499 34.3689 33.1949 31.4444 35.5961 29.5658L32.7416 26.7113C29.6205 29.3327 27.634 33.2623 27.634 37.6467C27.634 45.5192 34.0389 51.9241 41.9113 51.9241C49.7838 51.9241 56.1887 45.5192 56.1887 37.6467C56.189 33.2623 54.2025 29.3327 51.0817 26.7116ZM39.9039 23.3697H43.9195V37.6471H39.9039V23.3697Z" fill="#005A9C"/>
</svg>
