<svg xmlns="http://www.w3.org/2000/svg" width="100" height="100" fill="none"><path fill="#005A9C" d="m40 24-1-3-3-1-22 5c-3 1-4 3-4 6v42H6a4 4 0 1 0 0 8h34V24Zm-7 26c0 3-2 4-3 4-2 0-3-1-3-4 0-2 1-3 3-3 1 0 3 1 3 3Zm11-15h12v42c0 2 1 4 4 4h7a4 4 0 1 0 0-8h-4V35c0-4-3-7-7-7H44v7Z"/><path fill="#005C9A" d="M82 34c0 2 1 3 2 3h2a2 2 0 1 1 0 4H63a2 2 0 1 0 0 5h23a7 7 0 0 0 0-14h-2l-2 2Zm4 26c0 1 1 2 3 2h2a7 7 0 0 0 0-14H63a2 2 0 1 0 0 5h28a2 2 0 1 1 0 4h-2c-2 0-3 1-3 3Zm-16 9h3a7 7 0 0 0 0-14H63a2 2 0 1 0 0 5h10a2 2 0 1 1 0 4h-3a2 2 0 1 0 0 5Z"/></svg>