<svg xmlns="http://www.w3.org/2000/svg" width="101" height="101" fill="none"><g clip-path="url(#a)"><path fill="#005A9C" d="M51 10c0-3 1-5 3-7s4-2 7-2 5 0 7 2 3 4 3 7c0 2-1 5-3 7l-7 2-7-2c-2-2-3-5-3-7Zm-7 29-1 1h-1c-4 2-7 4-8 8v1c-2 4-5 5-9 4s-5-4-4-8v-1c3-7 8-12 15-15l2-1c4-2 9-3 14-3 9 0 18 6 21 14l4 7 4 2c4 2 5 5 3 8-1 4-5 5-9 3l-6-2-4-5-2-5-5 13 11 11 2 4 5 18c1 3-1 6-5 7-3 1-7-1-8-4l-5-17-15-16c-3-3-4-7-3-11l4-13ZM32 78l5-12 1 2 9 8-3 7-2 4-13 12c-3 2-7 2-10 0-3-3-3-7 0-9l13-12Z"/></g><defs><clipPath id="a"><path fill="#fff" d="M1 1h100v100H1z"/></clipPath></defs></svg>