<svg xmlns="http://www.w3.org/2000/svg" width="100" height="100" fill="none"><g clip-path="url(#a)"><path fill="#005A9C" d="M29 12v16h18V12c0-3-2-5-5-5h-9c-2 0-4 2-4 5Zm0 21c-8 0-13 7-13 16v33c0 5 2 8 6 8h31c4 0 7-3 7-8V49c0-9-6-16-13-16H29Zm9 16c3 0 5 1 8 3l3 9c0 4-1 7-3 10-3 2-5 3-8 3s-6-1-8-3c-2-3-3-6-3-10l3-9c2-2 5-3 8-3Zm31-34-1-1-4-2-1-5h-1l-2 5-4 2-1 1h1l4 2 2 5v1l1-1 1-5 4-2h1Zm10 7 1 1v-1l2-5 4-2h1l-1-1-4-2-2-5h-1l-1 5-5 2v1l5 2 1 5Zm1 16h-1l-1 5-5 2v1l5 3 1 4 1 1v-1l2-4 4-3h1l-1-1-4-2-2-5Zm-2-8h-1l-4-2-2-5h-1l-1 5-4 2h-1l1 1 4 2 1 5h1l2-5 4-2 1-1Z"/></g><defs><clipPath id="a"><path fill="#fff" d="M16 7h71v83H16z"/></clipPath></defs></svg>