<svg xmlns="http://www.w3.org/2000/svg" width="100" height="100" fill="none"><g clip-path="url(#a)"><path fill="#005A9C" d="M45 9h10c2 0 3 1 3 3v7H42v-7c0-2 1-3 3-3ZM34 36c0-3 1-6 3-8l2-2 6-2h10l6 2 2 2c2 2 3 5 3 8l-2 7 2 8c0 3-1 5-3 7 2 2 3 5 3 8s-1 6-3 8c2 2 3 5 3 8 0 6-4 11-8 11H42c-4 0-8-5-8-11 0-3 1-6 3-8-2-2-3-5-3-8s1-6 3-8c-2-2-3-4-3-7l2-8-2-7Zm8 12 2 3h12l2-3c0-2-1-3-2-3H44c-1 0-2 1-2 3Zm2 18c-1 0-2 1-2 3l2 3h12l2-3c0-2-1-3-2-3H44Z"/></g><defs><clipPath id="a"><path fill="#fff" d="M30 9h40v84H30z"/></clipPath></defs></svg>