<svg xmlns="http://www.w3.org/2000/svg" width="100" height="100" fill="none"><path fill="#005A9C" d="M34.599 20.056A11.84 11.84 0 0 0 24.877 15C18.33 15 13 20.332 13 26.894c0 4.019 1.994 7.566 5.056 9.705a35.17 35.17 0 0 1 16.543-16.543M75.107 15c-4.1 0-7.712 2.09-9.851 5.25a35.27 35.27 0 0 1 16.268 16.625A11.82 11.82 0 0 0 87 26.894C87 20.332 81.67 15 75.107 15"/><path fill="#005A9C" d="M81.554 51.735C81.55 34.306 67.43 20.187 50.002 20.183c-17.428.003-31.55 14.123-31.554 31.552.002 9.917 4.584 18.754 11.738 24.538l-2.123 3.703a3.678 3.678 0 1 0 6.383 3.66l1.976-3.454c4.118 1.97 8.711 3.104 13.58 3.106 4.869-.002 9.46-1.136 13.578-3.105l1.976 3.452a3.678 3.678 0 1 0 6.383-3.66l-2.123-3.702c7.153-5.784 11.736-14.62 11.737-24.538M50.002 27.962c6.577.001 12.497 2.653 16.81 6.963 4.31 4.313 6.961 10.233 6.963 16.81-.002 6.578-2.654 12.498-6.963 16.812-4.313 4.31-10.233 6.961-16.81 6.962-6.578 0-12.498-2.655-16.813-6.962-4.309-4.314-6.96-10.234-6.962-16.812.001-6.577 2.653-12.497 6.962-16.81 4.315-4.31 10.235-6.962 16.813-6.963"/><path fill="#005A9C" d="m50.002 54.183 13.723-.288a2.023 2.023 0 0 0 0-4.047l-11.478-.242-.454-15.636a1.79 1.79 0 1 0-3.581 0l-.522 17.9a2.31 2.31 0 0 0 2.312 2.313"/></svg>