<svg xmlns="http://www.w3.org/2000/svg" width="100" height="100" fill="none"><path fill="#005A9C" d="m79.203 62.485-13.781-5.438a3.2 3.2 0 0 0-1.865-.138 3 3 0 0 0-1.58.92l-6.104 6.865C46.295 60.536 38.586 53.44 34.07 44.62l7.457-5.619a2.7 2.7 0 0 0 1.002-1.455 2.5 2.5 0 0 0-.153-1.717L36.47 23.143a2.85 2.85 0 0 0-1.384-1.349 3.2 3.2 0 0 0-2-.226l-12.797 2.719a3 3 0 0 0-1.647.957A2.6 2.6 0 0 0 18 26.937C18 55.994 43.582 79.5 75.095 79.5c.668 0 1.316-.208 1.84-.59a2.7 2.7 0 0 0 1.04-1.517l2.952-11.781a2.56 2.56 0 0 0-.25-1.85 2.9 2.9 0 0 0-1.474-1.277"/></svg>