<svg xmlns="http://www.w3.org/2000/svg" width="100" height="100" fill="none"><path fill="#005A9C" d="m35.55 23.686-1.503 4.457H23.25c-5.102 0-9.25 4.1-9.25 9.143v36.571C14 78.9 18.148 83 23.25 83h55.5c5.102 0 9.25-4.1 9.25-9.143V37.286c0-5.043-4.148-9.143-9.25-9.143H67.954l-1.504-4.457c-.94-2.8-3.584-4.686-6.576-4.686H42.126c-2.992 0-5.637 1.886-6.576 4.686M51 41.857c3.68 0 7.209 1.445 9.811 4.017a13.63 13.63 0 0 1 4.064 9.697c0 3.638-1.462 7.126-4.064 9.698A13.96 13.96 0 0 1 51 69.286c-3.68 0-7.209-1.445-9.811-4.017a13.63 13.63 0 0 1-4.064-9.698c0-3.637 1.462-7.125 4.064-9.697A13.96 13.96 0 0 1 51 41.857"/></svg>