<svg xmlns="http://www.w3.org/2000/svg" width="100" height="100" fill="none"><g clip-path="url(#a)"><path fill="#005A9C" d="M36.137 14.5c1 0 1.832.802 2.14 1.856C39.852 21.798 44.503 25.75 50 25.75c5.496 0 10.148-3.952 11.723-9.394.308-1.054 1.14-1.856 2.14-1.856h1.615c2.882 0 5.663 1.11 7.88 3.136l16.169 14.78c.845.773 1.37 1.898 1.46 3.107s-.269 2.405-1 3.32l-7.174 9c-1.46 1.841-3.998 2.052-5.715.491L70.5 42.302V77.5c0 4.964-3.677 9-8.2 9H37.7c-4.523 0-8.2-4.036-8.2-9V42.302l-6.599 6.032c-1.703 1.561-4.24 1.35-5.714-.492l-7.175-9c-.73-.914-1.089-2.11-1-3.319.09-1.209.616-2.334 1.461-3.107l16.17-14.78c2.216-2.025 4.997-3.136 7.88-3.136z"/></g><defs><clipPath id="a"><path fill="#fff" d="M9 14.5h82v72H9z"/></clipPath></defs></svg>