<svg xmlns="http://www.w3.org/2000/svg" width="100" height="100" fill="none"><path fill="#005A9C" d="M77.357 14c-2.321 0-18.571 4.625-18.571 25.438v16.187c0 5.102 4.164 9.25 9.285 9.25h4.643v18.5A4.63 4.63 0 0 0 77.357 88 4.63 4.63 0 0 0 82 83.375v-64.75A4.63 4.63 0 0 0 77.357 14m-51.071 2.313a2.307 2.307 0 0 0-2.075-2.298 2.31 2.31 0 0 0-2.51 1.792l-4.396 19.7c-.203.91-.305 1.835-.305 2.76 0 6.634 5.093 12.083 11.607 12.675v32.433A4.63 4.63 0 0 0 33.25 88a4.63 4.63 0 0 0 4.643-4.625V50.942C44.407 50.35 49.5 44.901 49.5 38.267c0-.925-.102-1.85-.305-2.76l-4.396-19.7a2.32 2.32 0 0 0-2.524-1.793 2.306 2.306 0 0 0-2.06 2.299v19.396c0 .78-.64 1.416-1.423 1.416-.74 0-1.349-.564-1.422-1.3L35.558 16.11A2.305 2.305 0 0 0 33.25 14c-1.204 0-2.205.91-2.307 2.11l-1.799 19.714a1.43 1.43 0 0 1-1.422 1.301 1.42 1.42 0 0 1-1.422-1.416zm7.008 21.968h-.088l.044-.1z"/></svg>