<svg xmlns="http://www.w3.org/2000/svg" width="100" height="100" fill="none"><path fill="#005A9C" d="M81.682 22.825 69.731 10.787a2.65 2.65 0 0 0-3.768-.002 2.697 2.697 0 0 0 0 3.795l7.969 8.028c.455.46.455 1.204-.002 1.665l-.734.742a1.167 1.167 0 0 1-1.655 0l-8.4-8.464a2.04 2.04 0 0 0-2.902-.001 2.08 2.08 0 0 0 .003 2.921l8.4 8.463c.458.46.458 1.206 0 1.667l-.736.74c-.457.46-1.195.46-1.653.001l-8.403-8.464a2.04 2.04 0 0 0-2.898 0c-.8.807-.8 2.112 0 2.92l8.403 8.464c.457.46.457 1.205 0 1.666l-.736.74c-.458.46-1.198.46-1.653.002l-8.403-8.465a2.04 2.04 0 0 0-2.898 0 2.07 2.07 0 0 0 0 2.92l8.402 8.464c.455.46.455 1.206 0 1.666l-.736.74a1.16 1.16 0 0 1-1.655 0l-8.403-8.464a2.04 2.04 0 0 0-2.898 0c-.8.808-.8 2.114.002 2.92l8.4 8.465a1.18 1.18 0 0 1 0 1.665l-.735.742c-.455.46-1.199.46-1.653.002l-8.403-8.465a2.037 2.037 0 0 0-2.899 0c-.8.805-.8 2.114 0 2.92l8.403 8.464c.455.46.455 1.205-.002 1.666l-.734.74a1.16 1.16 0 0 1-1.653 0l-7.969-8.025a2.65 2.65 0 0 0-3.768 0 2.7 2.7 0 0 0 0 3.796L44.28 58.966c-8.784 8.914-19.838 13.616-24.458 18.271-5.704 5.745-3.85 10.357-1.915 12.304a4.924 4.924 0 0 0 6.997 0l29.457-29.673 3.209-3.232 24.52-24.7A6.6 6.6 0 0 0 84 27.21c-.022-1.77-1.044-3.162-2.318-4.385"/></svg>