<svg xmlns="http://www.w3.org/2000/svg" width="100" height="100" fill="none"><path fill="#005A9C" d="M45.226 82.88 17.345 56.85a24 24 0 0 1-1.837-1.913h13.424a8.64 8.64 0 0 0 7.977-5.323l1.62-3.888 7.607 16.895a3.66 3.66 0 0 0 3.302 2.176 3.74 3.74 0 0 0 3.395-2.052l6.542-13.1.262.525a8.65 8.65 0 0 0 7.73 4.783h16.125a24 24 0 0 1-1.837 1.913l-27.88 26.015a6.26 6.26 0 0 1-4.274 1.681 6.26 6.26 0 0 1-4.274-1.681M87.72 47.532H67.352c-.463 0-.895-.262-1.11-.679l-3.58-7.144a3.73 3.73 0 0 0-3.318-2.052 3.7 3.7 0 0 0-3.317 2.052l-6.388 12.776-7.87-17.574a3.69 3.69 0 0 0-3.425-2.176 3.72 3.72 0 0 0-3.363 2.284L30.074 46.79a1.23 1.23 0 0 1-1.142.756L12.47 47.53a3.8 3.8 0 0 0-1.127.17A23 23 0 0 1 10 39.955v-.895c0-10.785 7.792-19.981 18.423-21.756a22.06 22.06 0 0 1 19.225 6.157l1.852 1.851 1.852-1.851a22.06 22.06 0 0 1 19.225-6.157C81.208 19.08 89 28.274 89 39.06v.895c0 2.608-.432 5.17-1.28 7.576"/></svg>