<svg xmlns="http://www.w3.org/2000/svg" width="100" height="100" fill="none"><g clip-path="url(#a)"><path fill="#005A9C" d="M58.6 78c0 1.463.392 2.825 1.088 4h-.076c-2.797 0-5.062-2.237-5.062-5V66c0-2.212-1.81-4-4.05-4h-8.1c-2.24 0-4.05 1.788-4.05 4v11c0 2.763-2.266 5-5.062 5h-7.075c-.19 0-.38-.013-.57-.025a5 5 0 0 1-.456.025h-2.024c-2.798 0-5.063-2.237-5.063-5V63c0-.112 0-.237.013-.35v-8.712h-4.05c-2.279 0-4.05-1.75-4.05-4.013 0-1.125.38-2.125 1.265-3L43.716 19c.886-.875 1.899-1 2.785-1s1.898.25 2.657.875l22.946 19.913C66.6 40.713 62.65 45.9 62.65 52v3.075C60.233 56.462 58.6 59.037 58.6 62zm18.225-30c-2.24 0-4.05 1.788-4.05 4v6h8.1v-6c0-2.212-1.81-4-4.05-4M66.7 52c0-5.525 4.53-10 10.125-10S86.95 46.475 86.95 52v6c2.24 0 4.05 1.788 4.05 4v16c0 2.213-1.81 4-4.05 4H66.7c-2.24 0-4.05-1.787-4.05-4V62c0-2.212 1.81-4 4.05-4z"/></g><defs><clipPath id="a"><path fill="#fff" d="M10 18h81v64H10z"/></clipPath></defs></svg>