<svg xmlns="http://www.w3.org/2000/svg" width="100" height="100" fill="none"><path fill="#00519C" d="M23.306 25.813c-4.095 0-7.417 3.317-7.417 7.406V50.5h14.833V33.219c0-4.09-3.322-7.407-7.416-7.407M6 33.219c0-9.551 7.741-17.281 17.306-17.281 9.564 0 17.305 7.73 17.305 17.28v34.563c0 9.551-7.741 17.281-17.305 17.281S6 77.333 6 67.783zm85.74 39.407c-1.097 1.898-3.662 2.021-5.223.478L57.53 44.159c-1.545-1.543-1.437-4.12.48-5.215a24.64 24.64 0 0 1 12.268-3.255C83.937 35.688 95 46.735 95 60.375c0 4.46-1.19 8.64-3.26 12.251m-9.194 9.18a24.64 24.64 0 0 1-12.268 3.257c-13.66 0-24.722-11.048-24.722-24.688 0-4.46 1.19-8.64 3.26-12.251 1.097-1.898 3.662-2.022 5.222-.479l28.987 28.947c1.545 1.543 1.437 4.12-.479 5.215"/></svg>