<svg xmlns="http://www.w3.org/2000/svg" width="100" height="100" fill="none"><g clip-path="url(#a)"><path fill="#005A9C" d="M40 26.375c0-1.437-.906-2.703-2.062-3.562C36.125 21.453 35 19.578 35 17.5c0-4.14 4.484-7.5 10-7.5s10 3.36 10 7.5c0 2.078-1.125 3.953-2.937 5.313-1.157.859-2.063 2.125-2.063 3.562 0 2 1.625 3.625 3.625 3.625H62.5c4.14 0 7.5 3.36 7.5 7.5v8.875c0 2 1.625 3.625 3.625 3.625 1.438 0 2.703-.906 3.563-2.062C78.547 46.125 80.422 45 82.5 45c4.14 0 7.5 4.484 7.5 10s-3.36 10-7.5 10c-2.078 0-3.953-1.125-5.312-2.937-.86-1.157-2.126-2.063-3.563-2.063-2 0-3.625 1.625-3.625 3.625V82.5c0 4.14-3.36 7.5-7.5 7.5h-8.875c-2 0-3.625-1.625-3.625-3.625 0-1.437.906-2.703 2.063-3.562C53.875 81.453 55 79.578 55 77.5c0-4.14-4.484-7.5-10-7.5s-10 3.36-10 7.5c0 2.078 1.125 3.953 2.938 5.313 1.156.859 2.062 2.124 2.062 3.562 0 2-1.625 3.625-3.625 3.625H17.5c-4.14 0-7.5-3.36-7.5-7.5V63.625c0-2 1.625-3.625 3.625-3.625 1.438 0 2.703.906 3.563 2.063C18.547 63.875 20.422 65 22.5 65c4.14 0 7.5-4.484 7.5-10s-3.36-10-7.5-10c-2.078 0-3.953 1.125-5.312 2.938-.86 1.156-2.125 2.062-3.563 2.062-2 0-3.625-1.625-3.625-3.625V37.5c0-4.14 3.36-7.5 7.5-7.5h18.875c2 0 3.625-1.625 3.625-3.625"/></g><defs><clipPath id="a"><path fill="#fff" d="M10 10h80v80H10z"/></clipPath></defs></svg>