<svg xmlns="http://www.w3.org/2000/svg" width="100" height="103" fill="none"><path fill="#005A9C" d="M15.5 30.616c0-3.491 2.893-6.33 6.45-6.33a6.57 6.57 0 0 1 4.565 1.851l2.91 2.857a19.47 19.47 0 0 0 1.96 21.69l-.252.229a4.16 4.16 0 0 0 0 5.978c1.689 1.64 4.42 1.657 6.091 0l28.768-28.197a4.16 4.16 0 0 0 0-5.978c-1.689-1.64-4.42-1.657-6.091 0l-.234.23c-6.379-4.99-15.13-5.626-22.101-1.923l-2.93-2.856C31.277 14.852 26.713 13 21.952 13 12.032 13 4 20.882 4 30.616v55.741C4 89.478 6.57 92 9.75 92s5.75-2.522 5.75-5.643zM50 69.43a5.8 5.8 0 0 0 4.066-1.653 5.6 5.6 0 0 0 1.684-3.99 5.6 5.6 0 0 0-1.684-3.99A5.8 5.8 0 0 0 50 58.143a5.8 5.8 0 0 0-4.066 1.653 5.6 5.6 0 0 0-1.684 3.99 5.6 5.6 0 0 0 1.684 3.99A5.8 5.8 0 0 0 50 69.429m11.5 11.285a5.6 5.6 0 0 0-1.684-3.99 5.8 5.8 0 0 0-4.066-1.653 5.8 5.8 0 0 0-4.066 1.653A5.6 5.6 0 0 0 50 80.714a5.6 5.6 0 0 0 1.684 3.99 5.8 5.8 0 0 0 4.066 1.653 5.8 5.8 0 0 0 4.066-1.653 5.6 5.6 0 0 0 1.684-3.99m0-22.571a5.8 5.8 0 0 0 4.066-1.653 5.6 5.6 0 0 0 1.684-3.99 5.6 5.6 0 0 0-1.684-3.99 5.8 5.8 0 0 0-4.066-1.653 5.8 5.8 0 0 0-4.066 1.653 5.6 5.6 0 0 0-1.684 3.99 5.6 5.6 0 0 0 1.684 3.99 5.8 5.8 0 0 0 4.066 1.653M73 69.429a5.6 5.6 0 0 0-1.684-3.99 5.8 5.8 0 0 0-4.066-1.653 5.8 5.8 0 0 0-4.066 1.653 5.6 5.6 0 0 0-1.684 3.99 5.6 5.6 0 0 0 1.684 3.99 5.8 5.8 0 0 0 4.066 1.652 5.8 5.8 0 0 0 4.066-1.652A5.6 5.6 0 0 0 73 69.429m0-22.572a5.8 5.8 0 0 0 4.066-1.653 5.6 5.6 0 0 0 1.684-3.99 5.6 5.6 0 0 0-1.684-3.99A5.8 5.8 0 0 0 73 35.571a5.8 5.8 0 0 0-4.066 1.653 5.6 5.6 0 0 0-1.684 3.99 5.6 5.6 0 0 0 1.684 3.99A5.8 5.8 0 0 0 73 46.857m11.5 11.286a5.6 5.6 0 0 0-1.684-3.99A5.8 5.8 0 0 0 78.75 52.5a5.8 5.8 0 0 0-4.066 1.653A5.6 5.6 0 0 0 73 58.143a5.6 5.6 0 0 0 1.684 3.99 5.8 5.8 0 0 0 4.066 1.653 5.8 5.8 0 0 0 4.066-1.653 5.6 5.6 0 0 0 1.684-3.99m5.75-5.643a5.8 5.8 0 0 0 4.066-1.653A5.6 5.6 0 0 0 96 46.857a5.6 5.6 0 0 0-1.684-3.99 5.8 5.8 0 0 0-4.066-1.653 5.8 5.8 0 0 0-4.066 1.653 5.6 5.6 0 0 0-1.684 3.99 5.6 5.6 0 0 0 1.684 3.99A5.8 5.8 0 0 0 90.25 52.5"/></svg>