<svg xmlns="http://www.w3.org/2000/svg" width="100" height="100" fill="none"><path fill="#005A9C" d="M50.019 42.041c1.648 0 3.034-1.497 3.034-3.33v-14l-.45-5.651 2.772 3.18 4.682 4.717c.562.524 1.273.86 2.022.86 1.499 0 2.547-1.01 2.547-2.507 0-.786-.262-1.385-.899-1.984L52.042 12.473c-.786-.71-1.348-.973-2.022-.973-.712 0-1.236.262-2.023.973L36.31 23.327c-.637.6-.9 1.198-.9 1.984 0 1.497 1.05 2.508 2.548 2.508.711 0 1.46-.337 1.985-.861l5.056-5.09 2.398-2.807-.45 5.651V38.71c0 1.834 1.424 3.331 3.072 3.331m19.29 10.256c1.198 1.16 3.184 1.16 4.569-.187l6.517-6.513c1.386-1.385 1.349-3.331.15-4.492-1.123-1.197-3.109-1.234-4.495.15l-6.517 6.513c-1.348 1.385-1.386 3.406-.225 4.529m-38.618 0c1.161-1.16 1.161-3.144-.224-4.53l-6.518-6.512c-1.386-1.385-3.296-1.31-4.495-.15-1.198 1.123-1.198 3.107.188 4.492l6.517 6.512c1.386 1.348 3.371 1.385 4.532.188M5.26 89.5h89.48c1.8 0 3.26-1.347 3.26-3.032 0-1.646-1.461-2.994-3.259-2.994h-28.13c2.435-3.33 3.896-7.41 3.896-11.865 0-11.228-9.327-20.51-20.489-20.51-11.199 0-20.488 9.282-20.488 20.51 0 4.454 1.423 8.534 3.896 11.865H5.259C3.499 83.474 2 84.822 2 86.468 2 88.153 3.498 89.5 5.259 89.5M35.56 71.61c0-7.935 6.517-14.448 14.458-14.448s14.458 6.513 14.458 14.447c0 4.94-2.548 9.32-6.405 11.865H41.928c-3.82-2.545-6.367-6.924-6.367-11.865m-25.433 2.095h9.214c1.948 0 3.409-1.384 3.371-3.031-.037-1.684-1.423-3.07-3.37-3.07h-9.215c-1.948 0-3.334 1.386-3.334 3.07 0 1.647 1.386 3.031 3.334 3.031m70.567 0h9.214c1.91 0 3.334-1.384 3.334-3.031 0-1.684-1.423-3.07-3.334-3.07h-9.214c-1.948 0-3.408 1.386-3.37 3.07.036 1.647 1.422 3.031 3.37 3.031"/></svg>