<svg xmlns="http://www.w3.org/2000/svg" width="100" height="100" fill="none"><path fill="#005A9C" d="M50.018 41.65c.667 0 1.224-.259 2.002-.96l11.564-10.753c.63-.591.89-1.182.89-1.958 0-1.441-1.038-2.476-2.52-2.476-.742 0-1.446.333-2.002.85L55.32 31.01l-2.743 3.177.445-5.579V14.751c0-1.81-1.372-3.251-3.003-3.251-1.63 0-3.039 1.441-3.039 3.251v13.856l.445 5.58-2.373-2.809-5.003-5.025c-.52-.517-1.26-.85-1.965-.85-1.482 0-2.52 1.035-2.52 2.476 0 .776.26 1.367.89 1.958L48.016 40.69c.778.702 1.297.96 2.001.96m19.089 10.124c1.186 1.145 3.151 1.145 4.522-.185l6.45-6.43c1.371-1.366 1.334-3.288.148-4.433-1.112-1.182-3.076-1.22-4.448.148l-6.45 6.429c-1.334 1.367-1.37 3.362-.222 4.47m-42.7-.185c1.372 1.33 3.336 1.367 4.485.185 1.15-1.146 1.15-3.104-.222-4.471l-6.45-6.43c-1.37-1.366-3.261-1.292-4.447-.147-1.186 1.108-1.186 3.067.185 4.434zM5.725 88.5h88.55c1.779 0 3.225-1.33 3.225-2.993 0-1.625-1.446-2.956-3.225-2.956H66.44c2.409-3.288 3.855-7.315 3.855-11.712 0-11.085-9.23-20.248-20.276-20.248-11.082 0-20.275 9.163-20.275 20.248 0 4.397 1.409 8.424 3.855 11.712H5.725c-1.742 0-3.225 1.33-3.225 2.956 0 1.663 1.483 2.993 3.225 2.993M35.71 70.839c0-7.833 6.45-14.262 14.307-14.262s14.308 6.429 14.308 14.262c0 4.877-2.52 9.2-6.338 11.712H42.012c-3.78-2.512-6.301-6.835-6.301-11.712m-25.168 2.069h9.118c1.928 0 3.373-1.367 3.336-2.993-.037-1.663-1.408-3.03-3.336-3.03h-9.118c-1.927 0-3.299 1.367-3.299 3.03 0 1.626 1.372 2.993 3.3 2.993m69.832 0h9.119c1.89 0 3.298-1.367 3.298-2.993 0-1.663-1.408-3.03-3.298-3.03h-9.119c-1.927 0-3.372 1.367-3.335 3.03.036 1.626 1.408 2.993 3.335 2.993"/></svg>