<svg xmlns="http://www.w3.org/2000/svg" width="100" height="100" fill="none"><g fill="#005A9C" clip-path="url(#a)"><path d="M77.065 66.24c2.318 0 4.197 1.86 4.197 4.153 0 2.294-1.879 4.153-4.197 4.153H8.705c-2.317 0-4.197-1.86-4.197-4.153s1.88-4.153 4.198-4.153z"/><path d="M55.266 65.706c-2.467 0-4.468 1.978-4.468 4.42 0 2.441 2 4.42 4.468 4.42h36.758c2.467 0 4.468-1.978 4.468-4.42 0-2.441-2-4.42-4.468-4.42z"/><path d="M92.89 64.276v-15.73a1.48 1.48 0 0 0-.441-1.054l-2.512-2.486a3.184 3.184 0 0 0-4.462 0l-1.347 1.333a.144.144 0 0 1-.196-.001l-1.346-1.33a3 3 0 0 0-.362-.305 38 38 0 0 0 2.327-.466c4.73-1.11 7.816-2.938 9.178-5.434a11.08 11.08 0 0 0 1.986-6.912 11.2 11.2 0 0 0-3.385-7.5 1.5 1.5 0 0 0-1.088-.43 1.52 1.52 0 0 0-1.071.47 1.48 1.48 0 0 0-.404.89c-.458 3.096-3.073 5.441-6.243 5.59q-.38.017-.76.016c-3.125 0-7.309-.786-11.355-1.548-4.14-.779-8.05-1.514-11.111-1.514q-.391 0-.782.017c-4.64.218-8.237 4.13-8.018 8.72.168 3.524 2.566 6.565 5.973 7.586l.03.01a3.14 3.14 0 0 0-1.432.808l-2.511 2.485c-.283.28-.442.66-.442 1.056V64.61q-.165.064-.328.137H8.706C5.56 64.747 3 67.28 3 70.394c0 3.113 2.56 5.645 5.706 5.645h83.318c3.295 0 5.976-2.652 5.976-5.913 0-2.97-2.224-5.434-5.11-5.85m-8.86-14.914c.844 0 1.637-.324 2.232-.912l1.346-1.333a.146.146 0 0 1 .196 0l2.07 2.048v15.048H82.08V48.694c.555.434 1.242.67 1.949.668m-29.519-12.9c-.14-2.947 2.168-5.458 5.147-5.598q.32-.014.64-.014c2.776 0 6.551.71 10.548 1.462 4.183.787 8.51 1.601 11.917 1.601q.47 0 .904-.02a9.65 9.65 0 0 0 8.145-5.208 8.2 8.2 0 0 1 .89 3.347 8.15 8.15 0 0 1-1.45 5.066 1.5 1.5 0 0 0-.146.228c-1.703 3.26-9.105 5.207-19.803 5.207-6.525 0-11.726-.738-12.804-1.151a1 1 0 0 0-.117-.04c-2.206-.645-3.762-2.606-3.87-4.88m24.4 11.988.153-.153v15.916H74.66V48.64a3.184 3.184 0 0 0 4.25-.19m-3.274-3.046q1.122-.06 2.243-.156l-1.103 1.091a.145.145 0 0 1-.196 0zM71.56 48.45l.083-.082v15.846h-4.405V48.576a3.18 3.18 0 0 0 4.322-.127m-3.211-2.982q.955.032 1.912.045l-.834.827a.146.146 0 0 1-.197 0zm-5.076-.315-1.199 1.187a.146.146 0 0 1-.196 0l-1.347-1.333a3 3 0 0 0-.227-.203 55 55 0 0 0 2.969.35m-7.14 4.013 2.069-2.047a.146.146 0 0 1 .196-.001l1.347 1.333a3.183 3.183 0 0 0 4.463 0l.013-.013v15.776h-8.088zM8.706 73.055c-1.483 0-2.689-1.194-2.689-2.661s1.206-2.661 2.689-2.661h41.098a5.83 5.83 0 0 0 .274 5.321zm83.318 0H55.266c-1.631 0-2.959-1.314-2.959-2.929s1.327-2.928 2.96-2.928h36.757c1.631 0 2.959 1.314 2.959 2.928 0 1.615-1.327 2.928-2.96 2.928"/></g><defs><clipPath id="a"><path fill="#fff" d="M3 3h95v94H3z"/></clipPath></defs></svg>