<svg xmlns="http://www.w3.org/2000/svg" width="100" height="100" fill="none"><path fill="#005A9C" d="M40.333 23.807c0-1.18-.539-2.287-1.473-3.002a3.88 3.88 0 0 0-3.294-.691l-21.55 5.361a5.716 5.716 0 0 0-4.35 5.54V73.37H5.834A3.82 3.82 0 0 0 2 77.182a3.82 3.82 0 0 0 3.833 3.813h34.5zm-7.666 26.688c0 2.108-1.282 3.812-2.875 3.812-1.594 0-2.875-1.704-2.875-3.812 0-2.11 1.281-3.813 2.875-3.813 1.593 0 2.875 1.704 2.875 3.813m11.5-15.25h11.5v41.937a3.82 3.82 0 0 0 3.833 3.813h7.667A3.82 3.82 0 0 0 71 77.182a3.82 3.82 0 0 0-3.833-3.812h-3.834V35.245c0-4.206-3.438-7.625-7.666-7.625h-11.5z"/><path fill="#005C9A" d="M81.813 34.307a2.31 2.31 0 0 0 2.312 2.312h2.313a2.31 2.31 0 0 1 2.312 2.313 2.31 2.31 0 0 1-2.312 2.312H63.311A2.31 2.31 0 0 0 61 43.557a2.31 2.31 0 0 0 2.313 2.312h23.124a6.94 6.94 0 0 0 6.938-6.937 6.94 6.94 0 0 0-6.937-6.938h-2.313a2.31 2.31 0 0 0-2.312 2.313m4.624 25.437a2.31 2.31 0 0 0 2.313 2.313h2.313A6.94 6.94 0 0 0 98 55.119a6.94 6.94 0 0 0-6.937-6.937h-27.75A2.31 2.31 0 0 0 61 50.494a2.31 2.31 0 0 0 2.313 2.313h27.75a2.31 2.31 0 0 1 2.312 2.312 2.31 2.31 0 0 1-2.312 2.313H88.75a2.31 2.31 0 0 0-2.312 2.312m-16.187 9.25h2.313a6.94 6.94 0 0 0 6.937-6.937 6.94 6.94 0 0 0-6.937-6.938h-9.25A2.31 2.31 0 0 0 61 57.432a2.31 2.31 0 0 0 2.313 2.312h9.25a2.31 2.31 0 0 1 2.312 2.313 2.31 2.31 0 0 1-2.312 2.312H70.25a2.31 2.31 0 0 0-2.312 2.313 2.31 2.31 0 0 0 2.312 2.312"/></svg>