<svg xmlns="http://www.w3.org/2000/svg" width="101" height="101" fill="none"><g clip-path="url(#a)"><path fill="#005A9C" d="M50.985 9.875c0-2.486 1.075-4.87 2.986-6.629S58.477.5 61.181.5s5.296.988 7.208 2.746 2.986 4.143 2.986 6.63-1.074 4.87-2.986 6.629-4.505 2.746-7.209 2.746-5.297-.988-7.209-2.746-2.986-4.143-2.986-6.63M43.87 39.428c-.212.078-.403.156-.616.234l-1.699.684c-3.483 1.426-6.16 4.14-7.37 7.461l-.552 1.523c-1.19 3.282-5.034 5.04-8.602 3.946s-5.48-4.63-4.29-7.91l.552-1.524c2.421-6.66 7.773-12.09 14.74-14.942l1.699-.684a37.3 37.3 0 0 1 14.04-2.734c9.472 0 18.01 5.234 21.642 13.262l3.271 7.207 4.545 2.09c3.356 1.543 4.715 5.294 3.038 8.38s-5.756 4.336-9.112 2.793l-5.692-2.598c-2.188-1.016-3.908-2.695-4.843-4.785l-2.039-4.493-4.1 12.794 10.514 10.547a9.27 9.27 0 0 1 2.38 4.063l4.884 17.99c.914 3.34-1.295 6.738-4.949 7.578s-7.327-1.192-8.24-4.551L58.398 78.55 43.382 63.49c-3.144-3.144-4.312-7.54-3.122-11.66l3.589-12.403zm-12.276 38.81 5.31-12.188c.446.586.955 1.133 1.486 1.68l8.645 8.672-3.08 7.07a9.35 9.35 0 0 1-2.251 3.146l-13.105 12.05c-2.655 2.442-6.966 2.442-9.621 0-2.655-2.44-2.655-6.406 0-8.847z"/></g><defs><clipPath id="a"><path fill="#fff" d="M.986.5h100v100h-100z"/></clipPath></defs></svg>