<svg xmlns="http://www.w3.org/2000/svg" width="100" height="100" fill="none"><g clip-path="url(#a)"><path fill="#005A9C" d="M28.813 12.188V27.75h17.75V12.188C46.563 9.317 44.58 7 42.125 7H33.25c-2.454 0-4.437 2.318-4.437 5.188m0 20.75c-7.35 0-13.313 6.97-13.313 15.562v33.719c0 4.296 2.981 7.781 6.656 7.781H53.22c3.675 0 6.656-3.485 6.656-7.781V48.5c0-8.592-5.963-15.562-13.312-15.562zM37.688 48.5c2.942 0 5.764 1.366 7.844 3.798s3.25 5.731 3.25 9.17-1.17 6.739-3.25 9.171-4.902 3.799-7.844 3.799-5.765-1.367-7.845-3.799-3.25-5.73-3.25-9.17 1.17-6.738 3.25-9.17c2.08-2.433 4.902-3.799 7.845-3.799M68.75 14.781c0-.227-.139-.486-.305-.583l-4.132-2.01-1.72-4.831c-.083-.195-.305-.357-.5-.357-.193 0-.415.162-.499.357l-1.719 4.83-4.132 2.01c-.167.098-.306.357-.306.584s.14.487.306.584l4.132 2.01 1.72 4.83c.083.195.305.358.499.358s.416-.163.499-.357l1.72-4.831 4.132-2.01c.166-.097.305-.357.305-.584m10.594 7.425c.084.194.306.357.5.357s.416-.163.499-.357l1.72-4.831 4.132-2.01c.166-.097.305-.357.305-.584s-.139-.486-.305-.583l-4.132-2.01-1.72-4.831c-.083-.195-.305-.357-.5-.357-.193 0-.415.162-.499.357l-1.719 4.83-4.132 2.01c-.167.098-.305.357-.305.584s.138.487.305.584l4.132 2.01zm.999 16.276c-.083-.195-.305-.357-.5-.357-.193 0-.415.162-.499.357l-1.719 4.83-4.132 2.01c-.167.098-.305.357-.305.584s.138.487.305.584l4.132 2.01 1.72 4.83c.083.195.305.358.499.358s.416-.163.499-.357l1.72-4.831 4.132-2.01c.166-.097.305-.357.305-.584s-.139-.486-.305-.583l-4.132-2.01zm-2.718-8.138c0-.227-.139-.487-.305-.584l-4.132-2.01-1.72-4.83c-.083-.195-.305-.358-.5-.358-.193 0-.415.163-.499.357L68.75 27.75l-4.132 2.01c-.167.097-.305.357-.305.584s.138.486.305.583l4.132 2.01 1.72 4.831c.083.195.305.357.499.357s.416-.162.499-.357l1.72-4.83 4.132-2.01c.166-.098.305-.357.305-.584"/></g><defs><clipPath id="a"><path fill="#fff" d="M15.5 7h71v83h-71z"/></clipPath></defs></svg>