<svg xmlns="http://www.w3.org/2000/svg" width="100" height="100" fill="none"><g clip-path="url(#a)"><path fill="#005A9C" d="M45 8.5h10c1.663 0 3 1.755 3 3.938V19H42v-6.562c0-2.183 1.337-3.938 3-3.938M34 35.98c0-3.199 1.25-6.168 3.325-7.858l1.975-1.624c1.788-1.477 3.85-2.248 5.963-2.248h9.474c2.113 0 4.176.771 5.963 2.248l1.975 1.624C64.75 29.812 66 32.782 66 35.98c0 2.79-.937 5.3-2.425 6.99C65.075 44.872 66 47.546 66 50.5c0 3.134-1.05 5.956-2.712 7.875C64.95 60.295 66 63.116 66 66.25s-1.05 5.956-2.712 7.875C64.95 76.045 66 78.866 66 82c0 5.791-3.587 10.5-8 10.5H42c-4.413 0-8-4.709-8-10.5 0-3.134 1.05-5.956 2.712-7.875C35.05 72.205 34 69.384 34 66.25s1.05-5.956 2.712-7.875C35.05 56.455 34 53.634 34 50.5c0-2.953.925-5.627 2.425-7.53C34.938 41.262 34 38.77 34 35.98m8 11.895c0 1.444.9 2.625 2 2.625h12c1.1 0 2-1.181 2-2.625s-.9-2.625-2-2.625H44c-1.1 0-2 1.181-2 2.625m2 18.375c-1.1 0-2 1.181-2 2.625s.9 2.625 2 2.625h12c1.1 0 2-1.181 2-2.625s-.9-2.625-2-2.625z"/></g><defs><clipPath id="a"><path fill="#fff" d="M30 8.5h40v84H30z"/></clipPath></defs></svg>