<svg xmlns="http://www.w3.org/2000/svg" viewBox="0 0 576 512"><!--!Font Awesome Free 6.7.2 by @fontawesome - https://fontawesome.com License - https://fontawesome.com/license/free Copyright 2025 Fonticons, Inc.--><path d="M164 137c-29-30-29-78 0-108s77-30 106 0l18 18 18-18c29-30 77-30 106 0s30 78 0 108L311 240c-7 6-15 9-23 9s-16-3-22-9L164 137zm404 199c13 18 10 43-8 56l-127 94c-23 17-51 26-81 26H32c-18 0-32-14-32-32v-64c0-18 14-32 32-32h37l45-36c22-18 51-28 80-28h158a32 32 0 1 1 0 64h-80c-9 0-16 7-16 16s7 16 16 16h121l119-88c18-13 43-9 56 8zm-374 48h-1 1z"/></svg>